<?xml version="1.0" encoding="utf-8"?>
<!-- Generator: Adobe Illustrator 20.1.0, SVG Export Plug-In . SVG Version: 6.00 Build 0)  -->
<svg version="1.1" id="Layer_1" xmlns="http://www.w3.org/2000/svg" xmlns:xlink="http://www.w3.org/1999/xlink" x="0px" y="0px"
	 viewBox="0 0 612 90" style="enable-background:new 0 0 612 90;" xml:space="preserve">
<style type="text/css">
	.st0{fill:#BF2226;}
	.st1{display:none;}
	.st2{display:inline;}
</style>
<image style="display:none;overflow:visible;enable-background:new    ;" width="666" height="84" xlink:href="B6F03599.png"  transform="matrix(0.8619 0 0 0.8739 19 11.2973)">
</image>
<g>
	<path class="st0" d="M5.5,31c-0.1-0.2-0.1-0.4-0.1-0.5c0-0.2,0-0.4,0-0.5c0-1.1,0.4-2,1.2-2.6c0.8-0.6,2-1.1,3.7-1.5
		c0.6-0.1,1-0.1,1.3-0.1c0.4,0,0.8,0,1.3,0c3.5,0,6.8,0.5,9.9,1.6c3.1,1.1,5.8,2.5,8.1,4.4c2.3,1.9,4.1,4.1,5.4,6.8
		c1.3,2.6,2,5.5,2,8.6c0,2-0.6,3.9-1.7,5.6c-1.1,1.7-2.5,3.2-4.3,4.5c-1.8,1.3-3.7,2.3-5.9,3c-2.2,0.7-4.4,1.1-6.6,1.1h-0.6
		c-0.4,0.8-1.2,1.6-2.6,2.4H16c-1.2,0-2.1-0.3-2.6-0.9c-0.5-0.6-0.8-1.6-0.8-2.9v-0.4c-4.3-2.8-6.4-5.5-6.4-8.2
		c0-1.3,0.4-2.6,1.2-3.8c0.5,0.7,1.2,1.4,1.9,1.9c0.8,0.5,1.6,1.1,2.7,1.5c0-0.3-0.1-0.8-0.1-1.5s0-1.5,0-2.4s0-1.6,0-2.3
		c0-0.7,0-1.2,0-1.5c0-1.9,0.1-3.5,0.3-4.8c0.2-1.3,0.6-2.4,1-3.2c0.5-0.8,1-1.4,1.7-1.8c0.7-0.4,1.5-0.6,2.4-0.6h0.7
		c0.3,1.6,0.4,3.2,0.4,4.7c0,1.5,0,3,0,4.7v11.3c0.7,0.3,1.4,0.5,2.2,0.5c0.8,0,1.4,0.1,1.9,0.1c1,0,2-0.2,3.1-0.7
		c1.1-0.5,2.1-1.1,3-1.8c0.9-0.7,1.7-1.5,2.3-2.4c0.6-0.8,0.9-1.7,0.9-2.4c0-2.3-0.6-4.5-1.8-6.5c-1.2-2-2.8-3.7-4.8-5.1
		c-2-1.4-4.3-2.6-6.9-3.4c-2.6-0.8-5.3-1.2-8.1-1.2H8.9l-2.1,2L5.5,31z"/>
	<path class="st0" d="M45.8,26.4c1.7,0.1,3,0.6,3.8,1.6c0.8,1,1.2,2.4,1.3,4.2c0.1,2,0.1,4,0.2,6.2c0.1,2.2,0.1,4.4,0.2,6.6
		c0,2.2,0.1,4.4,0.1,6.6c0,2.2,0,4.2,0,6.1c0,0.4,0,0.8-0.1,1.2c-0.1,0.4-0.2,0.8-0.5,1.1c-0.2,0.3-0.5,0.6-0.9,0.8
		c-0.4,0.2-0.9,0.3-1.5,0.3c-0.4,0-0.8-0.1-1.3-0.2c-0.5-0.1-1-0.2-1.3-0.4c-0.3-0.1-0.6-0.4-0.8-0.8c-0.2-0.4-0.4-1-0.6-1.5
		c-0.2-0.6-0.3-1.1-0.4-1.6c-0.1-0.5-0.1-0.9-0.2-1.2c0-0.8,0-1.5,0-2.2c0-0.7,0-1.4,0.1-2.2c0-0.8,0.1-1.6,0.1-2.6s0.1-2.2,0.2-3.6
		c0-0.5,0-1.2,0-2.3c0-1.1,0-2.4,0.1-4c0-1.6,0.1-3.3,0.3-5.3c0.1-1.9,0.4-4,0.6-6.2c0.1-0.3,0.1-0.4,0.2-0.5
		C45.5,26.5,45.6,26.4,45.8,26.4z"/>
	<path class="st0" d="M78,48.6c0,0.3-0.1,0.5-0.2,0.6c-0.4,0.4-1.1,0.9-2.1,1.3c-1,0.5-2.1,0.7-3.4,0.7c-0.2,0-0.5-0.1-1.1-0.3
		c-0.6-0.2-1.3-0.4-2.1-0.7c-0.8-0.3-1.6-0.5-2.5-0.7c-0.9-0.2-1.7-0.3-2.4-0.3c-0.7,0-1.3,0.2-1.8,0.5c-0.5,0.3-0.7,0.8-0.7,1.6
		c0,0.3,0.2,0.5,0.6,0.9c0.4,0.3,1,0.6,1.6,0.9c0.7,0.3,1.6,0.5,2.6,0.7c1,0.2,2,0.2,3.2,0.2c1.4,0,2.8-0.1,4.2-0.4
		c1.4-0.2,2.7-0.6,3.9-1.1c1.2-0.5,2.1-1,2.9-1.7c0.7-0.7,1.1-1.5,1.1-2.4c0-0.6-0.3-1.2-0.8-1.6c-0.5-0.5-1.2-0.9-2-1.3
		c-0.8-0.4-1.7-0.7-2.8-1c-1-0.3-2.1-0.5-3.1-0.7c-1.1-0.2-2.1-0.3-3-0.4s-1.8-0.2-2.5-0.2c-2.8-0.1-5-0.2-6.6-0.4
		c-1.6-0.2-2.9-0.6-3.8-1c-0.9-0.4-1.4-1-1.7-1.7c-0.3-0.7-0.4-1.6-0.4-2.7c0-1.6,0.4-3,1.3-4.1c0.9-1.2,2-2.1,3.4-2.9
		c1.4-0.8,2.9-1.4,4.5-1.8c1.6-0.4,3.1-0.8,4.5-1c1.4-0.2,2.6-0.4,3.6-0.5c1-0.1,1.6-0.1,1.7-0.1c2.4,0,4.6,0.2,6.7,0.6
		c2.1,0.4,3.9,0.8,5.5,1.2c0.4,0.1,0.6,0.2,0.8,0.4c0.2,0.2,0.3,0.6,0.3,1.2c-0.1,0.6-0.3,1.1-0.7,1.5c-0.4,0.4-0.9,0.6-1.4,0.8
		c-0.4,0.1-0.9,0.2-1.6,0.3c-0.7,0.1-1.2,0.2-1.6,0.3c-0.4,0.1-1.3,0.1-2.4,0.2c-1.2,0.1-2.5,0.2-4.1,0.3c-1.5,0.1-3.1,0.2-4.8,0.4
		c-1.6,0.1-3.2,0.3-4.5,0.6c-1.4,0.2-2.5,0.5-3.4,0.9c-0.9,0.3-1.3,0.7-1.3,1.2c0,0.4,0.4,0.6,1.2,0.8c0.8,0.2,1.8,0.4,3,0.5
		c1.2,0.1,2.3,0.3,3.6,0.3c1.2,0.1,2.2,0.2,3,0.3c2.3,0.3,4.4,0.6,6.3,0.9c1.9,0.3,3.5,0.9,4.9,1.6c1.4,0.7,2.4,1.7,3.2,3
		c0.8,1.3,1.1,3,1.1,5.2c0,1.7-0.3,3.1-1,4.3c-0.7,1.2-1.5,2.3-2.5,3.1c-1,0.9-2.1,1.6-3.4,2.1c-1.2,0.5-2.5,1-3.6,1.3
		c-1.2,0.3-2.3,0.5-3.3,0.6c-1,0.1-1.7,0.2-2.3,0.2c-2,0-4-0.3-5.9-0.9c-1.9-0.6-3.5-1.4-4.9-2.4c-1.4-1-2.5-2-3.4-3.2
		c-0.8-1.2-1.2-2.3-1.2-3.3c0-1.2,0.3-2.3,0.8-3.1c0.5-0.8,1.2-1.5,2.1-2c0.9-0.5,1.8-0.8,2.8-1c1-0.2,2-0.3,3-0.3
		c0.9,0,1.9,0.1,2.9,0.2c1,0.1,2.1,0.3,3.2,0.6c1.1,0.3,2.1,0.6,3.2,1c1.1,0.4,2.1,0.9,3.1,1.4C78,48.4,78,48.5,78,48.6z"/>
	<path class="st0" d="M108,25.2c0-0.4,0-0.8,0.1-1.3c0.1-0.5,0.4-0.7,0.8-0.7c0.4,0,1,0.3,1.7,0.8c0.7,0.5,1.4,1.2,2.2,2.2
		c0.8,0.9,1.5,2.1,2.3,3.5c0.8,1.4,1.5,2.9,2.1,4.6c0.6,1.7,1.1,3.5,1.5,5.5c0.4,2,0.6,4.1,0.6,6.3c0,1.5-0.2,3-0.5,4.5
		c-0.3,1.5-0.8,2.9-1.4,4.2s-1.4,2.3-2.3,3c-0.9,0.8-2,1.2-3.1,1.2c-0.9,0-1.9-0.4-2.8-1.3c-0.9-0.9-1.8-2-2.7-3.3
		c-0.9-1.3-1.7-2.8-2.5-4.3s-1.5-3-2.1-4.3c-0.6-1.3-1.2-2.4-1.7-3.3c-0.5-0.9-0.8-1.3-1-1.3c-0.1,0-0.2,0.1-0.3,0.2
		c-0.1,0.2-0.2,0.4-0.3,0.8c-0.1,0.2-0.1,0.6-0.1,1.2c0,0.6-0.1,1.4-0.1,2.3c0,0.9-0.1,1.8-0.1,2.9c0,1-0.1,2.1-0.1,3
		c0,1-0.1,1.9-0.2,2.8c-0.1,0.8-0.2,1.5-0.2,2l0,0.3c-0.1,0.4-0.2,0.8-0.3,1.3c-0.1,0.5-0.3,0.9-0.5,1.4c-0.2,0.4-0.5,0.8-0.8,1.1
		s-0.7,0.4-1.2,0.4c-0.8,0-1.4-0.3-1.9-0.9c-0.5-0.6-0.9-1.3-1.2-2.1s-0.5-1.6-0.6-2.5c-0.1-0.9-0.1-1.6-0.1-2.2
		c0-0.8,0.1-2,0.2-3.4c0.1-1.4,0.3-3,0.6-4.7c0.3-1.7,0.6-3.4,1-5.1c0.4-1.7,0.8-3.3,1.3-4.7c0.5-1.4,1-2.6,1.6-3.4
		c0.6-0.9,1.2-1.3,1.9-1.3c0.5,0,1,0.3,1.7,0.9c0.6,0.6,1.3,1.4,2,2.4c0.7,1,1.5,2.2,2.3,3.5c0.8,1.3,1.7,2.6,2.5,4
		c0.9,1.4,1.7,2.7,2.6,4c0.9,1.3,1.7,2.5,2.6,3.6c0.2,0.2,0.3,0.4,0.4,0.5c0.1,0.2,0.2,0.2,0.2,0.2c0.3,0,0.5-0.2,0.5-0.6
		c0-0.4,0.1-1,0.1-1.9c0-1.5,0-2.8-0.1-4c-0.1-1.2-0.2-2.3-0.4-3.3c-0.2-1-0.4-2-0.6-2.9c-0.3-0.9-0.5-1.9-0.9-3
		c-0.3-1-0.7-2.1-1-3.3c-0.4-1.2-0.7-2.5-1.1-4l-0.3-1.2V25.2z"/>
	<path class="st0" d="M147.5,53.9c0,0.1,0,0.3,0,0.5c0,0.4-0.1,0.8-0.4,0.9c-0.6,0.5-1.3,1.1-2.3,1.9c-0.9,0.7-2,1.4-3.2,2.1
		c-1.2,0.7-2.5,1.3-3.9,1.8c-1.4,0.5-2.9,0.7-4.5,0.7c-1.4,0-2.6-0.3-3.7-0.8s-2-1.2-2.8-2c-0.8-0.8-1.4-1.8-1.8-2.9
		c-0.4-1.1-0.6-2.2-0.6-3.4c0-1,0.2-2.2,0.5-3.4c0.3-1.2,0.6-2.5,0.8-3.8c-0.2-0.5-0.4-0.9-0.7-1.3c-0.3-0.4-0.4-0.9-0.4-1.6
		c0-0.3,0-0.5,0.1-0.7c0-0.2,0.1-0.5,0.2-0.8c0.4-0.2,0.7-0.3,1.1-0.5c0.4-0.1,0.8-0.2,1.3-0.3l1.5-5.3c-0.6-0.3-1.2-0.5-1.9-0.8
		c-0.7-0.3-1.4-0.6-2-1c-0.6-0.4-1.1-0.8-1.5-1.2c-0.4-0.4-0.6-1-0.6-1.5c0-0.4,0.2-0.7,0.6-0.9c0.4-0.1,1-0.2,1.7-0.3
		c1,0,2-0.2,3.1-0.4c1.1-0.2,2.3-0.4,3.6-0.7c1.3-0.2,2.7-0.4,4.3-0.6c1.6-0.2,3.3-0.3,5.3-0.3c0.4,0,1,0,1.6,0.1
		c0.6,0.1,1.4,0.3,2.5,0.6c0.3,0.3,0.6,0.6,1,0.9c0.4,0.4,0.8,0.8,1.2,1.2c0.4,0.4,0.8,0.9,1.1,1.3c0.3,0.4,0.4,0.9,0.4,1.3
		c0,0.3-0.2,0.5-0.5,0.7c-0.3,0.2-0.8,0.4-1.3,0.6c-0.5,0.2-1,0.4-1.6,0.5c-0.6,0.1-1.1,0.2-1.5,0.2c-1,0.1-1.9,0.1-2.5,0.1
		c-0.7,0-1.3,0.1-1.8,0.1c-0.5,0-1.1,0-1.6,0c-0.5,0-1,0-1.7,0c-0.3,0-0.5,0-0.7,0c-0.2,0-0.4,0-0.7,0.1c-0.1,0.2-0.3,0.4-0.5,0.9
		c-0.2,0.4-0.3,1-0.3,1.7c0,0.4,0,0.9,0.1,1.4c0,0.2,0.1,0.4,0.3,0.6c0.1,0.2,0.4,0.3,0.7,0.3h7.1l1.3,0.2c0.3,0.4,0.5,0.8,0.6,1.3
		c0.1,0.5,0.2,1,0.3,1.5c0,0.2,0,0.4,0,0.8c0,0.4,0,0.7-0.1,1c-0.1,0.3-0.3,0.5-0.6,0.5c-0.4,0-1,0.1-1.7,0.1
		c-0.7,0-1.6,0.1-2.5,0.1c-0.9,0-2,0.1-3.1,0.1c-1.1,0-2.3,0-3.5,0c-0.1,0-0.2,0-0.3,0c-0.1,0-0.2,0.1-0.2,0.3
		c-0.3,0.9-0.6,1.8-0.9,3c-0.4,1.1-0.5,2.2-0.5,3.2c0,0.3,0,0.6,0,0.7c0,0.3,0.1,0.5,0.3,0.7c0.2,0.2,0.4,0.3,0.8,0.3
		c0.6,0,1.3-0.2,2.3-0.5s2-0.7,3.1-1.1s2.3-0.8,3.5-1.1c1.2-0.3,2.3-0.5,3.3-0.5c0.3,0,0.6,0.1,0.9,0.3c0.3,0.2,0.6,0.4,0.9,0.7
		c0.3,0.3,0.5,0.6,0.7,0.9C147.3,53.2,147.5,53.6,147.5,53.9z"/>
	<path class="st0" d="M160.9,73c-0.3,0.1-0.6,0.1-0.9,0.2c-0.3,0.1-0.8,0.1-1.3,0.1c-1.2,0-2.2-0.3-3-0.9c-0.8-0.6-1.4-1.3-1.8-2.2
		c-0.4-0.9-0.7-2-0.9-3.1c-0.2-1.2-0.3-2.3-0.3-3.5c0-0.9,0-1.8,0.1-2.7c0.1-0.9,0.2-1.8,0.3-2.8s0.3-2,0.6-3.1
		c0.2-1.1,0.5-2.4,0.9-3.7c-0.7-0.3-1.4-0.7-2.2-1.3c-0.7-0.6-1.4-1.3-2-2.1c-0.6-0.8-1.1-1.6-1.4-2.5c-0.4-0.9-0.6-1.7-0.6-2.5
		c0-1.8,0.3-3.6,0.9-5.5c0.6-1.9,1.3-3.6,2.1-5.2c0.8-1.6,1.7-2.8,2.5-3.8c0.9-1,1.6-1.5,2.2-1.5c0.5,0,0.9,0.2,1.4,0.7
		c0.4,0.4,0.7,1,0.7,1.7c0,0.7-0.2,1.5-0.5,2.4c-0.3,0.9-0.7,1.9-1.1,2.9c-0.4,1-0.8,2.1-1.1,3.3c-0.3,1.1-0.5,2.3-0.5,3.4
		c0,1.4,0.6,2.6,1.8,3.6c0.4-1.2,0.8-2.5,1.3-3.9c0.5-1.5,1.1-2.9,1.8-4.4c0.7-1.5,1.4-3,2.3-4.4c0.8-1.4,1.7-2.7,2.7-3.8s2-2,3-2.7
		c1.1-0.7,2.2-1,3.3-1c1.5,0,2.8,0.3,3.8,0.9c1,0.6,1.9,1.4,2.5,2.3c0.6,0.9,1.1,1.9,1.4,3c0.3,1.1,0.4,2.1,0.4,3.1
		c0,2.1-0.4,4.2-1.3,6.3c-0.9,2.1-2,4-3.6,5.7c-1.5,1.7-3.3,3.2-5.3,4.4c-2,1.2-4.2,2-6.5,2.4c-0.3,1.5-0.5,3-0.7,4.4
		c-0.2,1.4-0.4,2.8-0.5,4.2s-0.3,2.9-0.3,4.4c-0.1,1.6-0.1,3.3-0.1,5.2v1.5L160.9,73z M163.8,45.4c1.5-0.7,2.9-1.5,4.1-2.6
		c1.2-1.1,2.4-2.3,3.6-3.8c1.4-1.8,2.1-3.6,2.1-5.6c0-0.3,0-0.7-0.1-1c0-0.4-0.1-0.7-0.3-1c-0.1-0.3-0.3-0.6-0.6-0.8
		c-0.3-0.2-0.6-0.3-1-0.3c-0.4,0-0.8,0.3-1.3,1c-0.5,0.7-1,1.5-1.6,2.5c-0.6,1-1.1,2.1-1.7,3.4c-0.5,1.2-1,2.4-1.5,3.5
		c-0.5,1.1-0.8,2.1-1.2,3C164,44.4,163.9,45,163.8,45.4z"/>
	<path class="st0" d="M206.4,36.4c-0.6,0.4-1.2,0.7-1.9,0.8c-0.7,0.2-1.4,0.2-2.2,0.2c0.3-0.5,0.5-1,0.6-1.5s0.2-0.8,0.2-1
		c0-0.2-0.1-0.4-0.2-0.5c-0.2-0.2-0.5-0.2-0.9-0.2c-0.3,0-0.6,0-1.1,0.1c-0.4,0.1-0.9,0.2-1.5,0.4c-1.7,0.4-3.2,1-4.7,1.7
		c-1.4,0.8-2.7,1.7-3.8,2.9c-1.1,1.2-1.9,2.5-2.5,4c-0.6,1.5-0.9,3.2-0.9,5.1c0,2.1,0.6,3.7,1.8,4.8c1.2,1.1,3.1,1.7,5.7,1.7
		c0.6,0,1.4-0.1,2.4-0.2c1.1-0.1,2.1-0.4,3.1-0.9c1-0.5,1.9-1.1,2.7-2c0.8-0.9,1.2-2.1,1.2-3.7c0-0.3-0.2-0.6-0.5-0.7
		c-0.3-0.2-0.7-0.3-1.2-0.4c-0.5-0.1-1-0.2-1.5-0.2c-0.5,0-1,0-1.4,0c-1.3,0-2.5,0.3-3.4,1c-0.9,0.7-1.8,1.7-2.5,3
		c-1.1-0.3-1.7-0.7-1.9-1.2c-0.2-0.4-0.3-1.1-0.3-1.8c0-1,0.2-1.9,0.7-2.6c0.4-0.7,1-1.3,1.8-1.8c0.7-0.5,1.5-0.8,2.5-1.1
		c0.9-0.3,1.9-0.4,2.8-0.6c1-0.1,1.9-0.2,2.8-0.2c0.9,0,1.7,0,2.4,0c1.1,0,2.1,0.2,2.9,0.5c0.8,0.4,1.6,0.8,2.2,1.4
		c0.6,0.6,1,1.2,1.4,2c0.3,0.8,0.5,1.5,0.5,2.3c0,2.2-0.4,4.1-1.2,5.8c-0.8,1.7-1.9,3.1-3.4,4.2c-1.5,1.2-3.3,2-5.5,2.6
		c-2.2,0.6-4.6,0.9-7.4,0.9c-2.4,0-4.5-0.3-6.2-0.8c-1.7-0.5-3.1-1.4-4.2-2.5c-1.1-1.1-1.9-2.5-2.4-4.1c-0.5-1.6-0.7-3.5-0.7-5.7
		c0-2.1,0.3-4,1-5.9c0.7-1.9,1.5-3.6,2.6-5.1c1.1-1.6,2.3-3,3.7-4.2c1.4-1.2,2.8-2.3,4.3-3.2c1.5-0.9,2.9-1.6,4.4-2
		c1.4-0.5,2.8-0.7,4-0.7c4.8,0,7.2,1.6,7.2,4.8c0,0.6-0.1,1.3-0.3,2.1c-0.2,0.7-0.5,1.5-0.9,2.3L206.4,36.4z"/>
	<path class="st0" d="M222.2,58.6c0,0.4-0.1,0.7-0.2,0.9c-0.1,0.3-0.2,0.5-0.4,0.7c-0.2,0.2-0.5,0.4-0.9,0.6c-0.4,0.2-1,0.3-1.7,0.5
		c-1-0.2-1.8-0.7-2.4-1.3s-1.1-1.6-1.5-2.6c-0.4-1.1-0.6-2.4-0.7-3.9c-0.1-1.5-0.2-3.3-0.2-5.3c0-1.5,0.2-3.1,0.5-4.8
		c0.4-1.7,0.8-3.3,1.5-4.9c0.6-1.6,1.3-3.2,2.1-4.6c0.8-1.5,1.7-2.7,2.6-3.9c0.9-1.1,1.8-2,2.8-2.7c0.9-0.7,1.8-1,2.7-1
		c1.5,0,2.9,0.4,4.2,1.2c1.3,0.8,2.4,1.8,3.3,3c1,1.2,1.8,2.5,2.4,3.9c0.6,1.4,1.1,2.6,1.4,3.7l1.6,5.7c0.5,0,0.9-0.1,1.3-0.2
		c0.3-0.1,0.6-0.2,0.9-0.2c0.2-0.1,0.5-0.2,0.7-0.3c0.2-0.1,0.5-0.2,0.7-0.2c0,0.1,0,0.3,0,0.6c0,0.4-0.1,0.9-0.3,1.7
		c-0.2,0.8-0.5,2-0.9,3.7l-0.4,0.6l-0.3,0.3c0.2,2.3,0.4,3.9,0.4,4.8c0.1,0.9,0.1,1.4,0.1,1.4c0,0.6-0.2,1.2-0.5,1.8
		c-0.3,0.6-0.7,1.2-1.2,1.7c-0.5,0.5-1.1,1-1.8,1.3s-1.4,0.5-2.1,0.5c-0.4,0-0.6-0.2-0.8-0.6c-0.2-0.4-0.3-0.9-0.3-1.5
		c0-0.4,0-1,0-1.7c0-0.7,0-1.4,0-2.1c0-0.9-0.1-1.8-0.2-2.6c-0.1-0.8-0.4-1.4-0.8-1.8l-12.1-1.6L222.2,58.6z M233,44.7
		c0-0.8-0.1-1.6-0.2-2.4c-0.1-0.8-0.3-1.6-0.7-2.5c-0.7-1.6-1.2-2.9-1.7-3.8c-0.4-1-0.8-1.7-1.2-2.2c-0.3-0.5-0.6-0.9-0.9-1
		c-0.2-0.2-0.5-0.2-0.8-0.2c-0.4,0-0.8,0.2-1.2,0.5c-0.4,0.3-0.7,0.8-1,1.4c-0.7,1.5-1.3,3.1-2,4.7c-0.7,1.6-1.1,3.3-1.4,5L233,44.7
		z"/>
	<path class="st0" d="M265.9,61.6c-0.1-0.1-0.5-0.5-1.2-1.3c-0.7-0.8-1.6-1.7-2.6-2.7c-1-1.1-2-2.2-3.1-3.4s-2-2.3-2.7-3.2
		c-0.9,0-1.7-0.1-2.4-0.2c-0.7-0.1-1.4-0.3-2-0.7c-0.1,0.6-0.1,1.4-0.2,2.2c-0.1,0.8-0.1,1.6-0.2,2.4s-0.1,1.6-0.2,2.3
		c-0.1,0.7-0.1,1.4-0.1,2c-0.1,0.8-0.3,1.3-0.8,1.7s-1,0.6-1.7,0.6c-0.5,0-1.1-0.1-1.6-0.3c-0.5-0.2-1-0.5-1.5-0.9
		c-0.4-0.4-0.8-0.9-1.1-1.4c-0.3-0.6-0.4-1.2-0.4-1.9c0-4.1,0.3-8,1-11.8c0.7-3.8,1.6-7.7,2.9-11.6c-0.4,0.1-0.7,0.1-1.1,0.2
		c-0.3,0.1-0.6,0.1-0.8,0.1c-0.7-0.4-1.2-0.7-1.5-1.1c-0.3-0.4-0.5-0.7-0.5-1.1c0-0.6,0.5-1.1,1.4-1.7c0.9-0.5,2-1,3.2-1.5
		c1.2-0.4,2.4-0.8,3.7-1.1c1.2-0.3,2.2-0.4,2.8-0.4c2.9,0,5.3,0.2,7.3,0.7s3.6,1.2,4.9,2.3c1.2,1,2.2,2.4,2.7,4
		c0.6,1.6,0.9,3.6,0.9,6c0,1.2-0.2,2.2-0.7,3.3c-0.4,1-1,2-1.8,2.8c-0.8,0.8-1.6,1.6-2.6,2.3c-1,0.7-2,1.2-3,1.7
		c0.8,0.4,1.7,1.1,2.6,2c0.9,0.9,1.8,1.8,2.6,2.7s1.5,1.8,2,2.6c0.5,0.8,0.8,1.3,0.8,1.6c0,0.5-0.2,0.9-0.5,1.3
		c-0.3,0.4-0.7,0.8-1.2,1.1c-0.5,0.3-0.9,0.5-1.4,0.7s-0.9,0.3-1.2,0.3C266.5,62,266.2,61.8,265.9,61.6z M254.7,32.4
		c-0.3,1.1-0.5,2-0.7,3c-0.2,0.9-0.4,1.9-0.5,2.8c-0.2,0.9-0.3,1.9-0.5,2.9s-0.3,2.1-0.4,3.3c0.6,0.1,1.2,0.2,2,0.2
		c0.8,0,1.5,0,2.4,0c0.6,0,1.3-0.1,2.2-0.2c0.8-0.1,1.6-0.4,2.4-0.7c0.8-0.4,1.4-0.9,1.9-1.6c0.5-0.7,0.8-1.6,0.8-2.6
		c0-1.7-0.3-3.1-0.9-4c-0.6-0.9-1.3-1.6-2.3-2.1c-0.9-0.5-2-0.7-3.1-0.8C257,32.4,255.8,32.4,254.7,32.4L254.7,32.4z"/>
	<path class="st0" d="M283.5,58.6c0,0.4-0.1,0.7-0.2,0.9c-0.1,0.3-0.2,0.5-0.4,0.7c-0.2,0.2-0.5,0.4-0.9,0.6c-0.4,0.2-1,0.3-1.7,0.5
		c-1-0.2-1.8-0.7-2.4-1.3s-1.1-1.6-1.5-2.6c-0.4-1.1-0.6-2.4-0.7-3.9c-0.1-1.5-0.2-3.3-0.2-5.3c0-1.5,0.2-3.1,0.5-4.8
		c0.4-1.7,0.8-3.3,1.5-4.9c0.6-1.6,1.3-3.2,2.1-4.6c0.8-1.5,1.7-2.7,2.6-3.9c0.9-1.1,1.8-2,2.8-2.7c0.9-0.7,1.8-1,2.7-1
		c1.5,0,2.9,0.4,4.2,1.2c1.3,0.8,2.4,1.8,3.3,3c1,1.2,1.8,2.5,2.4,3.9c0.6,1.4,1.1,2.6,1.4,3.7l1.6,5.7c0.5,0,0.9-0.1,1.3-0.2
		c0.3-0.1,0.6-0.2,0.9-0.2c0.2-0.1,0.5-0.2,0.7-0.3s0.5-0.2,0.7-0.2c0,0.1,0,0.3,0,0.6c0,0.4-0.1,0.9-0.3,1.7
		c-0.2,0.8-0.5,2-0.9,3.7l-0.4,0.6l-0.3,0.3c0.2,2.3,0.4,3.9,0.4,4.8c0.1,0.9,0.1,1.4,0.1,1.4c0,0.6-0.2,1.2-0.5,1.8
		c-0.3,0.6-0.7,1.2-1.2,1.7s-1.1,1-1.8,1.3c-0.7,0.3-1.4,0.5-2.1,0.5c-0.4,0-0.6-0.2-0.8-0.6c-0.2-0.4-0.3-0.9-0.3-1.5
		c0-0.4,0-1,0-1.7c0-0.7,0-1.4,0-2.1c0-0.9-0.1-1.8-0.2-2.6c-0.1-0.8-0.4-1.4-0.8-1.8L283,49.5L283.5,58.6z M294.3,44.7
		c0-0.8-0.1-1.6-0.2-2.4c-0.1-0.8-0.3-1.6-0.7-2.5c-0.7-1.6-1.2-2.9-1.7-3.8c-0.4-1-0.8-1.7-1.2-2.2c-0.3-0.5-0.6-0.9-0.9-1
		c-0.2-0.2-0.5-0.2-0.8-0.2c-0.4,0-0.8,0.2-1.2,0.5c-0.4,0.3-0.7,0.8-1,1.4c-0.7,1.5-1.3,3.1-2,4.7c-0.7,1.6-1.1,3.3-1.4,5
		L294.3,44.7z"/>
	<path class="st0" d="M330.9,36.4c-0.6,0.4-1.2,0.7-1.9,0.8s-1.4,0.2-2.2,0.2c0.3-0.5,0.5-1,0.6-1.5c0.1-0.4,0.2-0.8,0.2-1
		c0-0.2-0.1-0.4-0.2-0.5c-0.2-0.2-0.5-0.2-0.9-0.2c-0.3,0-0.6,0-1.1,0.1c-0.4,0.1-0.9,0.2-1.5,0.4c-1.7,0.4-3.2,1-4.7,1.7
		c-1.4,0.8-2.7,1.7-3.8,2.9c-1.1,1.2-1.9,2.5-2.5,4c-0.6,1.5-0.9,3.2-0.9,5.1c0,2.1,0.6,3.7,1.8,4.8c1.2,1.1,3.1,1.7,5.7,1.7
		c0.6,0,1.4-0.1,2.4-0.2c1.1-0.1,2.1-0.4,3.1-0.9c1-0.5,1.9-1.1,2.7-2c0.8-0.9,1.2-2.1,1.2-3.7c0-0.3-0.2-0.6-0.5-0.7
		c-0.3-0.2-0.7-0.3-1.2-0.4s-1-0.2-1.5-0.2c-0.5,0-1,0-1.4,0c-1.3,0-2.5,0.3-3.4,1c-0.9,0.7-1.8,1.7-2.5,3c-1.1-0.3-1.7-0.7-1.9-1.2
		c-0.2-0.4-0.3-1.1-0.3-1.8c0-1,0.2-1.9,0.7-2.6c0.4-0.7,1-1.3,1.8-1.8s1.5-0.8,2.5-1.1c0.9-0.3,1.9-0.4,2.8-0.6
		c1-0.1,1.9-0.2,2.8-0.2c0.9,0,1.7,0,2.4,0c1.1,0,2.1,0.2,2.9,0.5c0.8,0.4,1.6,0.8,2.2,1.4c0.6,0.6,1,1.2,1.4,2
		c0.3,0.8,0.5,1.5,0.5,2.3c0,2.2-0.4,4.1-1.2,5.8c-0.8,1.7-1.9,3.1-3.4,4.2c-1.5,1.2-3.3,2-5.5,2.6c-2.2,0.6-4.6,0.9-7.4,0.9
		c-2.4,0-4.5-0.3-6.2-0.8c-1.7-0.5-3.1-1.4-4.2-2.5s-1.9-2.5-2.4-4.1c-0.5-1.6-0.7-3.5-0.7-5.7c0-2.1,0.3-4,1-5.9
		c0.7-1.9,1.5-3.6,2.6-5.1c1.1-1.6,2.3-3,3.7-4.2c1.4-1.2,2.8-2.3,4.3-3.2c1.5-0.9,2.9-1.6,4.4-2c1.4-0.5,2.8-0.7,4-0.7
		c4.8,0,7.2,1.6,7.2,4.8c0,0.6-0.1,1.3-0.3,2.1c-0.2,0.7-0.5,1.5-0.9,2.3L330.9,36.4z"/>
	<path class="st0" d="M363,53.9c0,0.1,0,0.3,0,0.5c0,0.4-0.1,0.8-0.4,0.9c-0.6,0.5-1.3,1.1-2.3,1.9c-0.9,0.7-2,1.4-3.2,2.1
		c-1.2,0.7-2.5,1.3-3.9,1.8c-1.4,0.5-2.9,0.7-4.5,0.7c-1.4,0-2.6-0.3-3.7-0.8c-1.1-0.5-2-1.2-2.8-2c-0.8-0.8-1.4-1.8-1.8-2.9
		s-0.6-2.2-0.6-3.4c0-1,0.2-2.2,0.5-3.4c0.3-1.2,0.6-2.5,0.8-3.8c-0.2-0.5-0.4-0.9-0.7-1.3c-0.3-0.4-0.4-0.9-0.4-1.6
		c0-0.3,0-0.5,0.1-0.7c0-0.2,0.1-0.5,0.2-0.8c0.4-0.2,0.7-0.3,1.1-0.5s0.8-0.2,1.3-0.3l1.5-5.3c-0.6-0.3-1.2-0.5-1.9-0.8
		c-0.7-0.3-1.4-0.6-2-1c-0.6-0.4-1.1-0.8-1.5-1.2c-0.4-0.4-0.6-1-0.6-1.5c0-0.4,0.2-0.7,0.6-0.9c0.4-0.1,1-0.2,1.7-0.3
		c1,0,2-0.2,3.1-0.4c1.1-0.2,2.3-0.4,3.6-0.7c1.3-0.2,2.7-0.4,4.3-0.6c1.6-0.2,3.3-0.3,5.3-0.3c0.4,0,1,0,1.6,0.1
		c0.6,0.1,1.4,0.3,2.5,0.6c0.3,0.3,0.6,0.6,1,0.9c0.4,0.4,0.8,0.8,1.2,1.2c0.4,0.4,0.8,0.9,1.1,1.3c0.3,0.4,0.4,0.9,0.4,1.3
		c0,0.3-0.2,0.5-0.5,0.7c-0.3,0.2-0.8,0.4-1.3,0.6c-0.5,0.2-1,0.4-1.6,0.5c-0.6,0.1-1.1,0.2-1.5,0.2c-1,0.1-1.9,0.1-2.5,0.1
		c-0.7,0-1.3,0.1-1.8,0.1c-0.5,0-1.1,0-1.6,0c-0.5,0-1,0-1.7,0c-0.3,0-0.5,0-0.7,0s-0.4,0-0.7,0.1c-0.1,0.2-0.3,0.4-0.5,0.9
		c-0.2,0.4-0.3,1-0.3,1.7c0,0.4,0,0.9,0.1,1.4c0,0.2,0.1,0.4,0.3,0.6c0.1,0.2,0.4,0.3,0.7,0.3h7.1l1.3,0.2c0.3,0.4,0.5,0.8,0.6,1.3
		c0.1,0.5,0.2,1,0.3,1.5c0,0.2,0,0.4,0,0.8c0,0.4,0,0.7-0.1,1c-0.1,0.3-0.3,0.5-0.6,0.5c-0.4,0-1,0.1-1.7,0.1
		c-0.7,0-1.6,0.1-2.5,0.1c-0.9,0-2,0.1-3.1,0.1c-1.1,0-2.3,0-3.5,0c-0.1,0-0.2,0-0.3,0s-0.2,0.1-0.2,0.3c-0.3,0.9-0.6,1.8-0.9,3
		c-0.4,1.1-0.5,2.2-0.5,3.2c0,0.3,0,0.6,0,0.7c0,0.3,0.1,0.5,0.3,0.7c0.2,0.2,0.4,0.3,0.8,0.3c0.6,0,1.3-0.2,2.3-0.5s2-0.7,3.1-1.1
		s2.3-0.8,3.5-1.1c1.2-0.3,2.3-0.5,3.3-0.5c0.3,0,0.6,0.1,0.9,0.3c0.3,0.2,0.6,0.4,0.9,0.7c0.3,0.3,0.5,0.6,0.7,0.9
		C362.8,53.2,362.9,53.6,363,53.9z"/>
	<path class="st0" d="M389.8,48.6c0,0.3-0.1,0.5-0.2,0.6c-0.4,0.4-1.1,0.9-2.1,1.3s-2.1,0.7-3.4,0.7c-0.2,0-0.5-0.1-1.1-0.3
		c-0.6-0.2-1.3-0.4-2.1-0.7c-0.8-0.3-1.6-0.5-2.5-0.7c-0.9-0.2-1.7-0.3-2.4-0.3s-1.3,0.2-1.8,0.5c-0.5,0.3-0.7,0.8-0.7,1.6
		c0,0.3,0.2,0.5,0.6,0.9c0.4,0.3,1,0.6,1.6,0.9c0.7,0.3,1.6,0.5,2.6,0.7c1,0.2,2,0.2,3.2,0.2c1.4,0,2.8-0.1,4.2-0.4
		c1.4-0.2,2.7-0.6,3.9-1.1c1.2-0.5,2.1-1,2.9-1.7s1.1-1.5,1.1-2.4c0-0.6-0.3-1.2-0.8-1.6c-0.5-0.5-1.2-0.9-2-1.3
		c-0.8-0.4-1.7-0.7-2.8-1c-1-0.3-2.1-0.5-3.1-0.7c-1.1-0.2-2.1-0.3-3-0.4c-1-0.1-1.8-0.2-2.5-0.2c-2.8-0.1-5-0.2-6.6-0.4
		c-1.6-0.2-2.9-0.6-3.8-1s-1.4-1-1.7-1.7c-0.3-0.7-0.4-1.6-0.4-2.7c0-1.6,0.4-3,1.3-4.1c0.9-1.2,2-2.1,3.4-2.9s2.9-1.4,4.5-1.8
		c1.6-0.4,3.1-0.8,4.5-1c1.4-0.2,2.6-0.4,3.6-0.5c1-0.1,1.6-0.1,1.7-0.1c2.4,0,4.6,0.2,6.7,0.6c2.1,0.4,3.9,0.8,5.5,1.2
		c0.4,0.1,0.6,0.2,0.8,0.4c0.2,0.2,0.3,0.6,0.3,1.2c-0.1,0.6-0.3,1.1-0.7,1.5c-0.4,0.4-0.9,0.6-1.4,0.8c-0.4,0.1-0.9,0.2-1.6,0.3
		c-0.7,0.1-1.2,0.2-1.6,0.3c-0.4,0.1-1.3,0.1-2.4,0.2c-1.2,0.1-2.5,0.2-4.1,0.3c-1.5,0.1-3.1,0.2-4.8,0.4s-3.2,0.3-4.5,0.6
		c-1.4,0.2-2.5,0.5-3.4,0.9c-0.9,0.3-1.3,0.7-1.3,1.2c0,0.4,0.4,0.6,1.2,0.8s1.8,0.4,3,0.5c1.2,0.1,2.3,0.3,3.6,0.3
		c1.2,0.1,2.2,0.2,3,0.3c2.3,0.3,4.4,0.6,6.3,0.9c1.9,0.3,3.5,0.9,4.9,1.6c1.4,0.7,2.4,1.7,3.2,3c0.8,1.3,1.1,3,1.1,5.2
		c0,1.7-0.3,3.1-1,4.3c-0.7,1.2-1.5,2.3-2.5,3.1s-2.1,1.6-3.4,2.1c-1.2,0.5-2.5,1-3.6,1.3c-1.2,0.3-2.3,0.5-3.3,0.6
		c-1,0.1-1.7,0.2-2.3,0.2c-2,0-4-0.3-5.9-0.9s-3.5-1.4-4.9-2.4c-1.4-1-2.5-2-3.4-3.2s-1.2-2.3-1.2-3.3c0-1.2,0.3-2.3,0.8-3.1
		c0.5-0.8,1.2-1.5,2.1-2c0.9-0.5,1.8-0.8,2.8-1c1-0.2,2-0.3,3-0.3c0.9,0,1.9,0.1,2.9,0.2c1,0.1,2.1,0.3,3.2,0.6
		c1.1,0.3,2.1,0.6,3.2,1c1.1,0.4,2.1,0.9,3.1,1.4C389.8,48.4,389.8,48.5,389.8,48.6z"/>
	<path class="st0" d="M411.1,58.6c0,0.4-0.1,0.7-0.2,0.9c-0.1,0.3-0.2,0.5-0.4,0.7c-0.2,0.2-0.5,0.4-0.9,0.6c-0.4,0.2-1,0.3-1.7,0.5
		c-1-0.2-1.8-0.7-2.4-1.3s-1.1-1.6-1.5-2.6s-0.6-2.4-0.7-3.9c-0.1-1.5-0.2-3.3-0.2-5.3c0-1.5,0.2-3.1,0.5-4.8
		c0.4-1.7,0.8-3.3,1.5-4.9s1.3-3.2,2.1-4.6c0.8-1.5,1.7-2.7,2.6-3.9c0.9-1.1,1.8-2,2.8-2.7c0.9-0.7,1.8-1,2.7-1
		c1.5,0,2.9,0.4,4.2,1.2c1.3,0.8,2.4,1.8,3.3,3c1,1.2,1.8,2.5,2.4,3.9c0.6,1.4,1.1,2.6,1.4,3.7l1.6,5.7c0.5,0,0.9-0.1,1.3-0.2
		c0.3-0.1,0.6-0.2,0.9-0.2c0.2-0.1,0.5-0.2,0.7-0.3s0.5-0.2,0.7-0.2c0,0.1,0,0.3,0,0.6c0,0.4-0.1,0.9-0.3,1.7
		c-0.2,0.8-0.5,2-0.9,3.7l-0.4,0.6l-0.3,0.3c0.2,2.3,0.4,3.9,0.4,4.8c0.1,0.9,0.1,1.4,0.1,1.4c0,0.6-0.2,1.2-0.5,1.8
		c-0.3,0.6-0.7,1.2-1.2,1.7s-1.1,1-1.8,1.3c-0.7,0.3-1.4,0.5-2.1,0.5c-0.4,0-0.6-0.2-0.8-0.6c-0.2-0.4-0.3-0.9-0.3-1.5
		c0-0.4,0-1,0-1.7c0-0.7,0-1.4,0-2.1c0-0.9-0.1-1.8-0.2-2.6c-0.1-0.8-0.4-1.4-0.8-1.8l-12.1-1.6L411.1,58.6z M421.9,44.7
		c0-0.8-0.1-1.6-0.2-2.4c-0.1-0.8-0.3-1.6-0.7-2.5c-0.7-1.6-1.2-2.9-1.7-3.8c-0.4-1-0.8-1.7-1.2-2.2c-0.3-0.5-0.6-0.9-0.9-1
		c-0.2-0.2-0.5-0.2-0.8-0.2c-0.4,0-0.8,0.2-1.2,0.5c-0.4,0.3-0.7,0.8-1,1.4c-0.7,1.5-1.3,3.1-2,4.7c-0.7,1.6-1.1,3.3-1.4,5
		L421.9,44.7z"/>
	<path class="st0" d="M443.5,26.1c1.4,0,2.1,0.7,2.1,2.1c0,1.7-0.2,3.3-0.5,4.8c-0.3,1.4-0.7,3-1.2,4.7c-0.4,1.7-0.9,3.7-1.4,5.9
		c-0.5,2.2-1,5-1.4,8.4v0.4c0,0.4,0.1,0.8,0.3,1.2c0.2,0.3,0.5,0.5,0.7,0.5c0.3,0,0.8-0.1,1.4-0.2s1.2-0.3,2-0.5
		c0.7-0.2,1.5-0.5,2.3-0.7c0.8-0.3,1.5-0.5,2.3-0.8c0.7-0.3,1.5-0.6,2.4-0.9c0.8-0.4,1.5-0.6,2-0.6c0.2,0,0.4,0.1,0.6,0.3
		c0.1,0.2,0.3,0.4,0.3,0.6c0.1,0.2,0.1,0.5,0.1,0.7c0,0.3,0,0.4,0,0.6c0,1-0.5,2.1-1.4,3.3c-0.9,1.2-2.1,2.3-3.5,3.3
		c-1.4,1-2.8,1.9-4.3,2.6c-1.5,0.7-2.9,1-4.1,1c-1.6,0-2.9-0.4-4-1.1s-1.9-1.6-2.5-2.7s-1.1-2.3-1.3-3.6c-0.3-1.3-0.4-2.6-0.4-3.8
		c0-1.8,0.2-3.8,0.7-6.1c0.4-2.3,1-4.5,1.6-6.8c0.6-2.2,1.3-4.3,2-6.1c0.7-1.9,1.3-3.3,1.9-4.3c0.3-0.5,0.7-1,1.3-1.2
		S442.7,26.3,443.5,26.1z"/>
	<path class="st0" d="M482.3,53.9c0,0.1,0,0.3,0,0.5c0,0.4-0.1,0.8-0.4,0.9c-0.6,0.5-1.3,1.1-2.3,1.9c-0.9,0.7-2,1.4-3.2,2.1
		c-1.2,0.7-2.5,1.3-3.9,1.8c-1.4,0.5-2.9,0.7-4.5,0.7c-1.4,0-2.6-0.3-3.7-0.8c-1.1-0.5-2-1.2-2.8-2c-0.8-0.8-1.4-1.8-1.8-2.9
		s-0.6-2.2-0.6-3.4c0-1,0.2-2.2,0.5-3.4c0.3-1.2,0.6-2.5,0.8-3.8c-0.2-0.5-0.4-0.9-0.7-1.3c-0.3-0.4-0.4-0.9-0.4-1.6
		c0-0.3,0-0.5,0.1-0.7c0-0.2,0.1-0.5,0.2-0.8c0.4-0.2,0.7-0.3,1.1-0.5s0.8-0.2,1.3-0.3l1.5-5.3c-0.6-0.3-1.2-0.5-1.9-0.8
		c-0.7-0.3-1.4-0.6-2-1c-0.6-0.4-1.1-0.8-1.5-1.2c-0.4-0.4-0.6-1-0.6-1.5c0-0.4,0.2-0.7,0.6-0.9c0.4-0.1,1-0.2,1.7-0.3
		c1,0,2-0.2,3.1-0.4c1.1-0.2,2.3-0.4,3.6-0.7c1.3-0.2,2.7-0.4,4.3-0.6c1.6-0.2,3.3-0.3,5.3-0.3c0.4,0,1,0,1.6,0.1
		c0.6,0.1,1.4,0.3,2.5,0.6c0.3,0.3,0.6,0.6,1,0.9c0.4,0.4,0.8,0.8,1.2,1.2c0.4,0.4,0.8,0.9,1.1,1.3c0.3,0.4,0.4,0.9,0.4,1.3
		c0,0.3-0.2,0.5-0.5,0.7c-0.3,0.2-0.8,0.4-1.3,0.6c-0.5,0.2-1,0.4-1.6,0.5c-0.6,0.1-1.1,0.2-1.5,0.2c-1,0.1-1.9,0.1-2.5,0.1
		c-0.7,0-1.3,0.1-1.8,0.1c-0.5,0-1.1,0-1.6,0c-0.5,0-1,0-1.7,0c-0.3,0-0.5,0-0.7,0s-0.4,0-0.7,0.1c-0.1,0.2-0.3,0.4-0.5,0.9
		c-0.2,0.4-0.3,1-0.3,1.7c0,0.4,0,0.9,0.1,1.4c0,0.2,0.1,0.4,0.3,0.6c0.1,0.2,0.4,0.3,0.7,0.3h7.1l1.3,0.2c0.3,0.4,0.5,0.8,0.6,1.3
		c0.1,0.5,0.2,1,0.3,1.5c0,0.2,0,0.4,0,0.8c0,0.4,0,0.7-0.1,1c-0.1,0.3-0.3,0.5-0.6,0.5c-0.4,0-1,0.1-1.7,0.1
		c-0.7,0-1.6,0.1-2.5,0.1c-0.9,0-2,0.1-3.1,0.1c-1.1,0-2.3,0-3.5,0c-0.1,0-0.2,0-0.3,0s-0.2,0.1-0.2,0.3c-0.3,0.9-0.6,1.8-0.9,3
		c-0.4,1.1-0.5,2.2-0.5,3.2c0,0.3,0,0.6,0,0.7c0,0.3,0.1,0.5,0.3,0.7c0.2,0.2,0.4,0.3,0.8,0.3c0.6,0,1.3-0.2,2.3-0.5s2-0.7,3.1-1.1
		s2.3-0.8,3.5-1.1c1.2-0.3,2.3-0.5,3.3-0.5c0.3,0,0.6,0.1,0.9,0.3c0.3,0.2,0.6,0.4,0.9,0.7c0.3,0.3,0.5,0.6,0.7,0.9
		C482.1,53.2,482.2,53.6,482.3,53.9z"/>
	<path class="st0" d="M491.5,52.7c0.6,0,1.2,0.1,1.8,0.4c0.6,0.3,1.1,0.6,1.5,1c0.4,0.4,0.8,0.9,1,1.5s0.4,1.2,0.4,1.8
		c0,0.6-0.1,1.2-0.4,1.8s-0.6,1.1-1,1.5c-0.4,0.4-0.9,0.8-1.4,1c-0.5,0.3-1.1,0.4-1.7,0.4c-0.6,0-1.3-0.1-1.9-0.3
		c-0.6-0.2-1.1-0.5-1.6-0.9c-0.5-0.4-0.8-0.8-1.1-1.4s-0.4-1.1-0.4-1.8c0-1.5,0.4-2.7,1.3-3.6C488.9,53.2,490,52.7,491.5,52.7z"/>
	<path class="st0" d="M524.4,52.6c0.4,0.4,0.8,0.8,1,1.2c0.3,0.5,0.4,1.1,0.4,1.8c0,0.8-0.2,1.4-0.7,2c-0.4,0.6-1.1,1.1-1.8,1.5
		c-0.8,0.4-1.6,0.8-2.6,1.1s-2,0.5-3,0.7c-1.1,0.2-2.1,0.3-3.1,0.3c-1,0.1-2,0.1-2.8,0.1c-1.7,0-3.3-0.5-4.9-1.5
		c-1.6-1-3-2.3-4.2-3.8c-1.2-1.6-2.2-3.3-2.9-5.2c-0.7-1.9-1.1-3.8-1.1-5.7c0-2.5,0.4-4.9,1.3-7.1s2.2-4.1,3.9-5.7
		c1.7-1.6,3.7-2.9,6.1-3.8c2.4-0.9,5.1-1.4,8.2-1.4c0.5,0,1,0,1.7,0c0.6,0,1.2,0.1,1.8,0.3s1.1,0.4,1.7,0.6c0.5,0.3,0.9,0.7,1.2,1.2
		c0.2,0.4,0.4,0.7,0.5,1c0.1,0.2,0.3,0.5,0.3,0.7c0.1,0.2,0.1,0.4,0.2,0.6c0,0.2,0,0.5,0,0.9c0,0.4,0,0.9-0.1,1.3
		c-0.1,0.4-0.2,1-0.3,1.5c-0.5,0.3-1.1,0.5-1.6,0.6s-1,0.2-1.5,0.2c-1.9,0-3.4-1-4.6-3l-4.5,1.2c-0.9,0.3-1.9,0.6-2.8,1.2
		c-0.9,0.5-1.8,1.2-2.5,2.1c-0.8,0.9-1.4,2-1.8,3.2c-0.5,1.3-0.7,2.8-0.7,4.5c0,0.8,0.2,1.8,0.6,2.8c0.4,1.1,0.9,2,1.6,3
		c0.7,0.9,1.5,1.7,2.5,2.4c1,0.6,2.2,1,3.4,1c1.1,0,2.4-0.2,3.7-0.6c1.4-0.4,2.9-0.9,4.7-1.4H524.4z"/>
	<path class="st0" d="M531.8,57.3c-1.3-2.2-2.2-4.3-2.8-6.3c-0.6-2-0.8-4-0.8-6c0-2.6,0.5-4.9,1.5-7.1c1-2.2,2.4-4.1,4.1-5.7
		c1.7-1.6,3.7-2.8,5.9-3.7c2.2-0.9,4.5-1.3,6.9-1.3c2.1,0,3.8,0.3,5.1,0.8c1.6,0.6,2.4,1.3,2.4,1.9c0,0.4-0.2,0.7-0.7,0.9
		c-0.5,0.2-0.9,0.3-1.4,0.4h0.2c1.1,0,2.2,0.1,3.3,0.4c1.1,0.3,2.2,0.7,3.2,1.4c0.4,0.3,0.8,0.7,1.2,1.3c0.4,0.6,0.7,1.3,0.9,2
		c0.3,0.7,0.5,1.5,0.6,2.3c0.1,0.8,0.2,1.5,0.2,2.1c0,2.9-0.7,5.6-2.2,8.1c-1.4,2.4-3.3,4.5-5.6,6.3c-2.3,1.7-4.9,3.1-7.8,4.1
		c-2.9,1-5.8,1.6-8.6,1.7c-0.2,0.6-0.5,1.1-1.1,1.6c-0.5,0.5-1.1,1-1.6,1.5c-1-1.2-1.7-2.4-2.2-3.5c-0.5-1.1-0.7-2-0.7-2.8V57.3z
		 M547.9,31.8c0.6-0.2,1.1-0.3,1.7-0.4c0.5-0.1,1.1-0.2,1.7-0.3c-1,0.1-2,0.3-3,0.5c-1.1,0.3-2,0.5-2.9,0.8c-2,0.5-3.8,1.2-5.2,2.3
		c-1.5,1-2.7,2.2-3.6,3.6c-1,1.3-1.7,2.8-2.1,4.3c-0.4,1.5-0.7,3-0.7,4.5c0,0.5,0,1,0.1,1.4c0,0.5,0.2,1,0.3,1.4c1-2.6,2-5,3-7
		c1-2,2-3.8,3.1-5.3c1.1-1.5,2.2-2.7,3.3-3.6c1.2-0.9,2.4-1.6,3.8-2L547.9,31.8z M552.4,36.9c-1.3,0-2.5,0.4-3.6,1.1
		c-1.1,0.7-2.1,1.8-3.1,3.1c-1,1.4-1.9,3-2.8,4.9c-0.9,1.9-1.8,4.1-2.7,6.5h1.2c0.8,0,1.8-0.2,2.8-0.5c1.1-0.3,2.1-0.7,3.2-1.3
		c1.1-0.6,2.2-1.2,3.2-2s2-1.6,2.8-2.6c0.8-0.9,1.4-1.9,1.9-3c0.5-1.1,0.7-2.1,0.7-3.3c0-1-0.4-1.8-1.1-2.3
		C554.4,37.2,553.5,36.9,552.4,36.9z"/>
	<path class="st0" d="M573.1,34.5c0,0,0.1-0.1,0.1-0.2c0.2-0.4,0.6-1,1.1-1.8c0.5-0.8,1.2-1.7,2-2.5c0.8-0.8,1.8-1.6,2.8-2.3
		c1.1-0.7,2.2-1,3.5-1c0.6,0,1.2,0.2,1.6,0.6c0.4,0.4,0.7,1,1,1.7c0.2,0.7,0.4,1.5,0.5,2.4c0.1,0.9,0.2,1.8,0.2,2.7
		c0.1,1.5,0.1,3,0.2,4.3c0.1,1.3,0.1,2.3,0.2,2.9c0.2-0.5,0.5-1.2,1-2.1c0.4-0.8,0.9-1.7,1.6-2.7c0.6-0.9,1.4-1.9,2.2-2.8
		c0.8-0.9,1.7-1.8,2.7-2.5c1-0.8,2-1.4,3.1-1.8c1.1-0.5,2.3-0.7,3.6-0.7c0.7,0,1.4,0.2,1.9,0.5c0.6,0.3,1.1,0.7,1.6,1.2
		c0.4,0.5,0.8,1,1.1,1.6c0.3,0.6,0.4,1.1,0.5,1.7c0,0.4,0.1,1.2,0.1,2.2c0.1,1,0.1,2.2,0.2,3.6c0,1.4,0.1,2.9,0.1,4.5
		c0,1.6,0,3.2,0,4.8c0,1.7,0,3.4-0.1,5.1s-0.1,3.1-0.3,4.4c-0.1,1.3-0.3,2.3-0.6,3.1c-0.2,0.8-0.6,1.2-0.9,1.2h-0.3
		c-1.2,0-2.1-0.4-2.8-1.2c-0.7-0.8-1.2-1.7-1.6-2.7c-0.4-1-0.6-2-0.7-3c-0.1-1-0.2-1.7-0.2-2.1v-0.1c0-0.4-0.1-1-0.1-1.8
		c0-0.8,0-1.7,0-2.7c0-1,0-2.1,0-3.2c0-1.1,0-2.2,0-3.3c0-1.4,0-2.7,0.1-3.9c0-1.2,0.1-1.9,0.2-2.3c-0.8,0.3-1.5,0.9-2.3,1.8
		c-0.7,0.9-1.4,2-2.1,3.3c-0.7,1.3-1.3,2.7-1.8,4.2c-0.6,1.5-1.1,3-1.6,4.4c-0.5,1.5-1,2.8-1.4,4.2c-0.4,1.3-0.8,2.4-1.1,3.3
		c-0.2,0.4-0.5,0.8-1,1s-1,0.3-1.5,0.3h0c-0.8,0-1.6-0.5-2.2-1.6s-1.2-2.4-1.7-4c-0.5-1.6-0.9-3.4-1.2-5.4c-0.3-1.9-0.6-3.8-0.8-5.5
		c-0.2-1.8-0.4-3.3-0.4-4.7c-0.1-1.3-0.1-2.2-0.1-2.6c-0.6,0.4-1.1,0.8-1.6,1.4c-0.5,0.6-1,1.2-1.4,1.9c-0.4,0.7-0.9,1.4-1.3,2.1
		c-0.4,0.7-0.8,1.4-1.1,2.1c-0.4,0.7-0.7,1.4-0.9,2.1c-0.3,0.7-0.5,1.5-0.6,2.4c-0.2,0.9-0.3,1.9-0.4,3s-0.1,2.5-0.1,4.2v0.7
		c0,1,0,1.9-0.1,2.7s-0.2,1.6-0.4,2.2c-0.2,0.6-0.6,1.2-1,1.5c-0.4,0.4-1.1,0.6-1.9,0.6h-0.3c-0.6,0-1.2-0.2-1.6-0.6
		c-0.4-0.4-0.8-1.1-1.2-2.1c-0.2-0.5-0.3-1.3-0.5-2.4c-0.1-1.1-0.3-2.2-0.4-3.4c-0.1-1.2-0.2-2.4-0.2-3.5c-0.1-1.2-0.1-2.1-0.1-2.8
		c0-2,0.1-4,0.3-6c0.2-2,0.4-3.8,0.8-5.5c0.1-0.2,0.1-0.3,0.1-0.5c0-0.2,0.1-0.3,0.1-0.5c0.2-0.8,0.4-1.6,0.6-2.3
		c0.2-0.7,0.4-1.3,0.7-1.8c0.3-0.5,0.7-0.9,1.2-1.2c0.5-0.3,1.1-0.4,1.9-0.4c0.7,0,1.2,0.2,1.6,0.7c0.4,0.4,0.7,1,0.9,1.6
		c0.2,0.6,0.4,1.2,0.5,1.8C572.9,33.7,573,34.2,573.1,34.5z"/>
</g>
<g class="st1">
	<path class="st2" d="M343.2,52.6c0,2-0.7,3.7-2.1,5.1s-3.1,2.1-5.1,2.1s-3.7-0.7-5.1-2.1s-2.1-3.1-2.1-5.1s0.7-3.7,2.1-5.1
		s3.1-2.1,5.1-2.1s3.7,0.7,5.1,2.1S343.2,50.6,343.2,52.6z M342,52.6c0-1.7-0.6-3.1-1.8-4.3s-2.6-1.8-4.3-1.8
		c-1.5,0-2.8,0.5-3.9,1.5l1.1,1.1l-0.8,0.9l-1.2-1.2c-0.9,1.1-1.3,2.3-1.3,3.7c0,1.7,0.6,3.1,1.8,4.3c1.2,1.2,2.6,1.8,4.3,1.8
		c1.4,0,2.6-0.4,3.7-1.3l-1-1l0.8-0.9l1.1,1.1C341.6,55.4,342,54.1,342,52.6z M338.6,55.4c0,0.7-0.3,1.3-0.8,1.9s-1.1,0.8-1.8,0.8
		c-0.7,0-1.3-0.3-1.9-0.8s-0.8-1.1-0.8-1.9v-1.5c-0.3,0-0.5-0.1-0.7-0.3c-0.2-0.2-0.3-0.4-0.3-0.7c0-0.3,0.1-0.5,0.3-0.7
		c0.2-0.2,0.4-0.3,0.7-0.3v-3.9c1.8,0,3.2,0.3,4.1,1c0.8,0.5,1.2,1.2,1.2,2.1V55.4z M333.4,53.5v-1.3c-0.4,0-0.6,0.3-0.6,0.7
		C332.7,53.3,332.9,53.5,333.4,53.5z M336.2,48.7l-1.8-0.4h-0.6v0.6L336.2,48.7z M337.6,49.5l-0.7-0.5l-3,0.3V50L337.6,49.5z
		 M338.1,50.5l-0.2-0.5l-4,0.5V51L338.1,50.5z M338.2,51.4V51l-4.4,0.5H338.2z M338.2,55.4v-3.6h-0.4c0,0.6-0.1,1.1-0.2,1.3
		s-0.4,0.4-0.7,0.4c-0.6,0-0.9-0.6-0.9-1.7h-2.2v3.6H338.2z M335.7,55h-0.3v-2.4h-1.2v-0.3h1.6V55z M334.8,52.8l-0.3,0.3l-0.3-0.3
		H334.8z M337,56.3V56h-2v0.3H337z"/>
</g>
</svg>
